<?xml version="1.0" encoding="UTF-8"?>
<svg width="44px" height="38px" viewBox="0 0 44 38" version="1.1" xmlns="http://www.w3.org/2000/svg" xmlns:xlink="http://www.w3.org/1999/xlink">
    <!-- Generator: Sketch 55.1 (78136) - https://sketchapp.com -->
    <title>形状</title>
    <desc>Created with Sketch.</desc>
    <g id="页面1" stroke="none" stroke-width="1" fill="none" fill-rule="evenodd" opacity="0.4">
        <g id="币币交易-未登录-未添加自选备份" transform="translate(-938.000000, -983.000000)" fill="#778CA2" fill-rule="nonzero">
            <g id="编组-7" transform="translate(0.000000, 838.000000)">
                <g id="编组-16">
                    <g id="编组-5" transform="translate(936.000000, 145.000000)">
                        <g id="暂无记录-2">
                            <path d="M39.885029,13.261564 C40.3444146,14.1101174 39.3375727,11.757254 37.5559658,11.757254 L9.98089111,11.7679651 C8.9526294,11.7679651 8.23974711,12.276145 7.64111612,13.2127691 C7.04248513,14.1517736 2.00115297,21.9280106 2.00115297,23.573939 L2.00115297,34.1422029 L2.00115297,34.1421933 C2.00705351,35.7943367 3.35047727,37.1292447 5.00262442,37.1246521 L42.5235281,37.1246521 L42.5235282,37.1246521 C44.1756753,37.1292491 45.5191007,35.7943441 45.5250071,34.1422007 L45.5250071,23.5739368 C45.5250071,21.928001 39.8838537,13.2615649 39.8838537,13.2615649 C39.8838538,13.2615649 39.0769535,11.757254 39.8838537,13.2615649 L39.885029,13.261564 Z M30.0344156,22.7587266 L30.0344157,22.7587266 C29.373716,22.7257582 28.7802995,23.160265 28.6122217,23.8000805 C28.6122217,23.8762482 28.6229327,23.9524158 28.6229327,24.0285835 L28.6229327,24.0285835 C28.6229327,26.7237805 26.4380468,28.9086813 23.7428348,28.9086813 C21.0476378,28.9086813 18.862737,26.7237954 18.862737,24.0285835 C18.862737,23.9298036 18.8746382,23.8345939 18.8793987,23.7370042 C18.5306938,22.7634878 17.4917203,22.7575368 17.4917203,22.7575368 L4.60272457,22.7575368 L8.96687282,14.7194792 C8.96687282,14.7194792 9.76663192,13.2782458 10.8936761,13.3210891 L36.8894362,13.3210891 C37.793925,13.3210891 37.9498331,13.6483719 38.6032057,14.7194792 L43.0387656,22.7634878 L30.0378915,22.7634878 L30.0343212,22.7575372 L30.0344156,22.7587266 Z M14.3676903,7.5299559 L11.0508282,4.38328064 L11.0508283,4.3832807 C10.6952374,4.04510793 10.6811172,3.4827009 11.01929,3.12711149 C11.3574628,2.77152059 11.9198698,2.75740041 12.2754592,3.09557321 L15.5899409,6.24462887 L15.5899409,6.24462891 C15.933281,6.59469359 15.9278299,7.15680939 15.5777654,7.50015095 C15.2450556,7.82646975 14.7166703,7.84000524 14.3676865,7.53114854 L14.3676903,7.5299559 Z M23.5042237,6.13989717 L23.5042237,6.13989715 C23.3342471,5.97777359 23.2357614,5.75468303 23.2304963,5.51984636 L23.1102944,0.949794343 L23.1102943,0.949793778 C23.0849139,0.459459391 23.4618341,0.04138845 23.9521678,0.0160075373 C24.4425021,-0.00937292897 24.8605731,0.367547311 24.885954,0.857880954 C24.8867178,0.872637478 24.8871136,0.887410776 24.887141,0.902187086 L25.0037727,5.4746195 L25.0037727,5.47462003 C25.0162908,5.96413616 24.6296051,6.37111597 24.140089,6.38363534 C23.9055328,6.38963351 23.6781631,6.30241418 23.5077904,6.1410862 L23.50422,6.1410862 L23.5042237,6.13989717 Z M32.1052065,7.36572012 L32.1052066,7.36572021 C31.7503845,7.02848361 31.7360003,6.46750221 32.0730732,6.11252649 L35.2209387,2.79209389 L35.2209387,2.79209387 C35.5594402,2.43683176 36.1218458,2.42324419 36.4771079,2.7617459 C36.83237,3.10024745 36.8459576,3.662653 36.5074559,4.01791511 L33.3607806,7.33596732 L33.3607806,7.33596728 C33.0237624,7.69121674 32.4625701,7.70599636 32.1073191,7.36897801 C32.107011,7.36868575 32.1067032,7.36839326 32.1063955,7.36810056 L32.1052065,7.36572012 Z" id="形状"></path>
                        </g>
                    </g>
                </g>
            </g>
        </g>
    </g>
</svg>